<?xml version="1.0" encoding="UTF-8" standalone="no"?><!DOCTYPE svg PUBLIC "-//W3C//DTD SVG 1.1//EN" "http://www.w3.org/Graphics/SVG/1.1/DTD/svg11.dtd"><svg width="100%" height="100%" viewBox="0 0 81 66" version="1.1" xmlns="http://www.w3.org/2000/svg" xmlns:xlink="http://www.w3.org/1999/xlink" xml:space="preserve" xmlns:serif="http://www.serif.com/" style="fill-rule:evenodd;clip-rule:evenodd;stroke-linejoin:round;stroke-miterlimit:2;"><path id="settings" d="M34.784,43.494c-21.058,-11.454 -33.367,-5.255 -34.758,-25.286c-1.039,-14.967 29.025,-23.811 52.719,-14.205c19.602,7.948 34.523,38.289 24.303,52.371c-16.711,23.025 -28.093,-5.172 -42.264,-12.88Z" style="fill:url(#_Radial1);"/><clipPath id="_clip2"><path d="M34.784,43.494c-21.058,-11.454 -33.367,-5.255 -34.758,-25.286c-1.039,-14.967 29.025,-23.811 52.719,-14.205c19.602,7.948 34.523,38.289 24.303,52.371c-16.711,23.025 -28.093,-5.172 -42.264,-12.88Z"/></clipPath><g clip-path="url(#_clip2)"><path d="M40.018,18.413c1.348,0.098 2.655,0.362 3.899,0.772l2.521,-2.569l3.166,1.772l-0.4,3.692l-0.127,-0.069c0.77,0.626 1.483,1.32 2.128,2.075l3.443,-0.866l1.778,3.163l-2.233,2.899c0.337,0.967 0.586,1.977 0.737,3.021l3.337,1.055l-0.147,3.625l-3.428,1.298c-0.251,1.097 -0.614,2.154 -1.076,3.157l2.136,2.496l-2.04,3.001l-3.475,-0.687c-0.644,0.634 -1.34,1.215 -2.083,1.736l0.262,-0.126l0.619,3.573l-3.287,1.536l-2.764,-2.48l0.491,-0.238c-1.141,0.34 -2.337,0.559 -3.574,0.641c-8.077,0.537 -15.178,-4.927 -16.94,-12.571l0.407,3.35l-3.581,-0.572l-0.389,-3.608l3.181,-1.777c-0.082,-1.248 -0.021,-2.472 0.17,-3.656l-2.795,-2.083l1.329,-3.377l3.447,-0.094c0.497,-0.857 1.07,-1.666 1.711,-2.417l-1.405,-3.024l2.773,-2.339l3.225,1.63c0.993,-0.542 2.05,-0.985 3.16,-1.313l0.714,-3.407l3.622,-0.214l1.488,2.995Zm-1.992,4.262c6.582,-0.437 12.282,4.552 12.719,11.134c0.438,6.583 -4.551,12.282 -11.134,12.72c-6.582,0.438 -12.282,-4.551 -12.719,-11.134c-0.438,-6.582 4.551,-12.282 11.134,-12.72Z" style="fill:#fcfcfc;fill-opacity:0.82;"/></g><defs><radialGradient id="_Radial1" cx="0" cy="0" r="1" gradientUnits="userSpaceOnUse" gradientTransform="matrix(48.2652,-77.2735,77.2735,48.2652,19.3983,69.5818)"><stop offset="0" style="stop-color:#000;stop-opacity:1"/><stop offset="0.5" style="stop-color:#404040;stop-opacity:1"/><stop offset="1" style="stop-color:#fff;stop-opacity:1"/></radialGradient></defs></svg>