<?xml version="1.0" encoding="UTF-8" standalone="no"?><!DOCTYPE svg PUBLIC "-//W3C//DTD SVG 1.1//EN" "http://www.w3.org/Graphics/SVG/1.1/DTD/svg11.dtd"><svg width="100%" height="100%" viewBox="0 0 1920 1080" version="1.1" xmlns="http://www.w3.org/2000/svg" xmlns:xlink="http://www.w3.org/1999/xlink" xml:space="preserve" xmlns:serif="http://www.serif.com/" style="fill-rule:evenodd;clip-rule:evenodd;stroke-linejoin:round;stroke-miterlimit:2;"><rect id="ArtBoard2" x="0" y="0" width="1920" height="1080" style="fill:none;"/><clipPath id="_clip1"><rect x="0" y="0" width="1920" height="1080"/></clipPath><g clip-path="url(#_clip1)"><g opacity="0.5"><path d="M274.414,884.483c184.416,130.786 -70.662,245.741 -166.832,381.345c-96.169,135.604 2.755,240.835 -181.661,110.048c-184.416,-130.786 -256.061,-347.062 -159.892,-482.665c96.169,-135.604 323.969,-139.515 508.385,-8.728Z" style="fill:#f51aa4;"/><path d="M1771.33,611.315c23.227,-224.889 412.19,-112 563.243,-42.576c151.054,69.425 236.169,-47.259 141.754,158.169c-94.414,205.427 -302.414,222.466 -411.777,203.346c-164.232,-28.712 -312.568,-131.605 -293.22,-318.939Z" style="fill:#59dbd4;"/><path d="M1274.79,777.286c62.604,-41.495 96.115,-27.602 131.053,-11.545c34.937,16.057 52.369,61.026 29.888,109.94c-22.481,48.914 -115.448,5.675 -150.385,-10.382c-34.938,-16.057 -47.389,-63.601 -10.556,-88.013Z" style="fill:#a300cc;"/><path d="M845.083,926.308c65.051,-9.314 108.903,36.803 97.24,67.668c-10.812,28.61 -32.751,44.397 -74.281,54.834c-41.529,10.437 -65.267,-3.2 -72.722,-32.863c-7.454,-29.662 11.492,-84.16 49.763,-89.639Z" style="fill:#d12300;"/><path d="M169.817,172.294c18.395,271.741 -379.392,400.029 -545.562,140.605c-42.623,-66.542 165.503,-622.962 273.085,-627.238c107.582,-4.275 11.212,-17.292 308.88,203.185c96.097,71.177 -48.658,102.416 -36.403,283.448Z" style="fill:#ff7f0f;"/><path d="M91.088,203.494c71.814,47.292 -54.194,185.085 -174.368,242.155c-56.234,26.704 -7.289,-12.223 36.45,-84.892c53.698,-89.214 78.921,-196.115 137.918,-157.263Z" style="fill:#fff;fill-opacity:0.1;"/><path d="M957.866,33.222c-127.086,-178.115 2.723,-210.604 27.663,-510.62c6.397,-76.954 175.48,-143.101 241.533,-111.872c66.053,31.228 311.113,54.218 127.372,400.748c-71.275,134.423 -285.478,377.44 -396.568,221.744Z" style="fill:#5cff8d;"/><path d="M136.829,832.201c73.738,31.403 135.021,72.505 123.868,98.694c-11.153,26.19 -66.289,-20.461 -140.028,-51.864c-73.739,-31.403 -148.807,-30.086 -137.654,-56.276c11.154,-26.189 80.075,-21.956 153.814,9.446Z" style="fill:#fff;fill-opacity:0.13;"/><path d="M1043.38,66.901c-28.732,-1.638 -64.408,-17.514 -62.788,-45.933c1.621,-28.419 35.621,-5.113 64.353,-3.475c28.732,1.639 72.957,-18.523 71.337,9.897c-1.621,28.419 -44.17,41.149 -72.902,39.511Z" style="fill:#fff;fill-opacity:0.3;"/><path d="M1812,551.949c16.714,-23.428 57.606,-42.214 80.779,-25.682c23.172,16.533 -14.68,32.856 -31.394,56.283c-16.714,23.428 -23.255,71.589 -46.428,55.057c-23.173,-16.532 -19.671,-62.231 -2.957,-85.658Z" style="fill:#fff;fill-opacity:0.17;"/><path d="M1352.58,760.071c17.719,1.015 50.264,15.353 35.717,38.75c-8.236,13.246 -24.945,4.677 -39.164,0.958c-14.218,-3.719 -52.092,9.327 -54.25,-4.363c-4.201,-26.643 39.978,-36.36 57.697,-35.345Z" style="fill:#fff;fill-opacity:0.12;"/><path d="M847.026,938.386c15.185,-4.833 46.514,-2.231 44.077,19.265c-1.379,12.169 -16.988,11.022 -32.174,15.855c-15.185,4.832 -32.357,16.603 -39.201,7.894c-13.321,-16.952 12.113,-38.182 27.298,-43.014Z" style="fill:#fff;fill-opacity:0.12;"/><path d="M289.069,938.577c28.281,3.233 40.622,53.195 12.341,49.962c-28.281,-3.233 -40.622,-53.195 -12.341,-49.962Z" style="fill:#fff;fill-opacity:0.13;"/><path d="M1820.94,664.934c28.281,3.233 40.622,53.195 12.341,49.962c-28.281,-3.232 -40.622,-53.194 -12.341,-49.962Z" style="fill:#fff;fill-opacity:0.13;"/></g></g></svg>